<svg width="120" height="120" viewBox="0 0 120 120" fill="none" xmlns="http://www.w3.org/2000/svg">
<path opacity="0.5" fill-rule="evenodd" clip-rule="evenodd" d="M48.3832 10.323L46.2578 0.322577L47.7756 0L49.901 10.0004L48.3832 10.323ZM31.4539 7.16659L27.5938 9.39484L31.4396 16.0571L35.2997 13.8288L34.6724 12.7423L32.1467 14.2003L31.1289 12.437L33.3687 11.1441L32.758 10.0861L30.5181 11.3791L29.5553 9.71113L32.0811 8.25313L31.4539 7.16659ZM24.1042 16.3731C24.7549 15.8132 24.7526 15.22 24.3004 14.6944C23.8554 14.1772 23.2835 14.103 22.6328 14.6629L21.6568 15.5027L23.1282 17.2129L24.1042 16.3731ZM24.6663 21.3628L19.6562 15.5399L21.8419 13.6593C23.2434 12.4535 24.6404 12.6597 25.4802 13.6358C26.0903 14.3449 26.3155 15.3997 25.5965 16.4538L29.0209 17.616L27.6695 18.7788L24.4324 17.6151L23.8819 18.0888L25.8342 20.3579L24.6663 21.3628ZM19.0211 21.2579C17.2231 19.8236 14.8655 20.1673 13.4998 21.8793C12.1479 23.5742 12.3163 25.975 14.1143 27.4093C15.921 28.8504 18.2992 28.481 19.6511 26.7861C21.01 25.0827 20.8278 22.6991 19.0211 21.2579ZM15.1026 26.1704C13.8809 25.1959 13.7123 23.8366 14.5838 22.744C15.4485 21.66 16.8113 21.5223 18.0329 22.4968C19.2546 23.4713 19.4404 24.8443 18.5757 25.9283C17.7042 27.0209 16.3242 27.1449 15.1026 26.1704ZM10.7454 41.9757L10.1185 43.3831L3.10156 40.2576L3.81353 38.6592L10.0251 38.7514L5.80168 34.1957L6.50917 32.6073L13.5261 35.7328L12.8992 37.1403L8.3352 35.1073L12.0619 39.0202L11.5872 40.0858L6.18138 39.9428L10.7454 41.9757ZM2.59878 54.4814C3.29114 54.5178 3.72149 54.9262 3.67638 55.7834L3.60872 57.0692L1.35579 56.9507L1.42345 55.6649C1.46856 54.8076 1.91741 54.4456 2.59878 54.4814ZM0 58.4222L7.67096 58.8258L7.75192 57.2873L4.76266 57.13L4.80083 56.4046L7.87915 54.8695L7.97283 53.0891L4.76611 54.7608C4.50118 53.5125 3.58323 52.9463 2.64908 52.8971C1.36327 52.8295 0.248667 53.6965 0.151513 55.5428L0 58.4222ZM0.327542 67.2523C0.0340859 65.082 1.41516 63.1406 3.69449 62.8324C5.98472 62.5227 7.83326 64.0385 8.12524 66.1979C8.41575 68.3463 7.0391 70.3204 4.74886 70.6301C2.46954 70.9383 0.618049 69.4007 0.327542 67.2523ZM1.70168 67.0665C1.88896 68.4515 2.98788 69.2691 4.53651 69.0597C6.08515 68.8503 6.94929 67.7673 6.76201 66.3822C6.5762 65.0081 5.45547 64.1935 3.90684 64.4029C2.3582 64.6123 1.51588 65.6923 1.70168 67.0665ZM10.6109 77.2784L10.1352 75.813L7.04732 76.8154L6.28956 74.4812L5.12769 74.8583L5.88544 77.1926L4.01178 77.8008L3.02296 74.7548L1.84014 75.1388L3.30469 79.6502L10.6109 77.2784ZM16.9975 89.7871L10.6172 94.0648L9.7592 92.785L15.1249 89.1876L13.7153 87.0853L14.73 86.405L16.9975 89.7871ZM15.6406 100.385L21.3891 95.2893L18.6881 92.2421L17.774 93.0524L19.4529 94.9466L14.6186 99.2316L15.6406 100.385ZM21.8893 106.469C20.1776 105.103 19.8344 102.745 21.2691 100.947C22.7107 99.1407 25.0943 98.9591 26.7975 100.318C28.492 101.671 28.8609 104.049 27.4194 105.855C25.9847 107.653 23.5839 107.821 21.8893 106.469ZM22.7542 105.385C23.8467 106.257 25.206 106.088 26.1807 104.867C27.1555 103.645 27.0318 102.265 25.9394 101.394C24.8556 100.529 23.4825 100.714 22.5078 101.936C21.533 103.157 21.6704 104.52 22.7542 105.385ZM30.8767 109.746C31.2009 109.133 31.7524 108.915 32.5112 109.316L33.6493 109.918L32.5944 111.912L31.4562 111.31C30.6975 110.909 30.5577 110.349 30.8767 109.746ZM33.3594 113.761L36.9513 106.971L35.5893 106.251L34.1896 108.897L33.5476 108.557L33.4492 105.118L31.8733 104.285L32.0415 107.897C30.7976 107.613 29.8979 108.207 29.4605 109.034C28.8584 110.172 29.1764 111.548 30.8107 112.413L33.3594 113.761ZM43.867 109.683C45.9805 110.335 47.1118 112.378 46.433 114.576C45.7541 116.773 43.6647 117.832 41.5512 117.18C39.9214 116.676 38.8661 115.394 38.8363 113.738L40.5292 114.261C40.6586 115.073 41.1823 115.614 41.9709 115.858C43.2537 116.254 44.4576 115.601 44.9188 114.108C45.3768 112.625 44.7543 111.396 43.4715 111C42.6829 110.757 41.9448 110.909 41.3769 111.516L39.684 110.994C40.646 109.632 42.2372 109.179 43.867 109.683ZM53.8612 116.447C52.7978 116.01 51.5614 115.503 51.7119 113.967C51.8299 112.762 52.9 111.772 54.6415 111.943C56.2296 112.099 57.3747 113.051 57.255 114.499L55.6121 114.338C55.6284 113.72 55.2628 113.276 54.5509 113.206C53.828 113.135 53.3633 113.476 53.3097 114.024C53.2391 114.745 53.9663 115.035 54.7861 115.363C55.848 115.788 57.0652 116.274 56.9058 117.837C56.7706 119.218 55.5719 119.94 53.9947 119.786C52.4284 119.632 51.4334 118.728 51.4701 117.338L53.1568 117.503C53.1403 118.01 53.5069 118.444 54.163 118.52C54.7632 118.601 55.2412 118.349 55.3024 117.725C55.367 117.065 54.6634 116.776 53.8612 116.447ZM68.2674 5.98551C68.4172 4.44966 67.1805 3.94256 66.117 3.50645C65.3146 3.17746 64.6109 2.88887 64.6752 2.22949C64.7361 1.60516 65.214 1.35322 65.8143 1.43388C66.4704 1.50894 66.8372 1.94278 66.8209 2.44983L68.5077 2.61434C68.5437 1.22463 67.5483 0.32036 65.982 0.167593C64.4048 0.0137581 63.2063 0.73723 63.0717 2.11733C62.913 3.68048 64.1305 4.16662 65.1925 4.59069C66.0125 4.91813 66.7398 5.20856 66.6695 5.92918C66.6161 6.47684 66.1516 6.81853 65.4286 6.74803C64.7167 6.67859 64.351 6.23379 64.367 5.61614L62.724 5.4559C62.6049 6.90385 63.7505 7.85594 65.3387 8.01084C67.0802 8.1807 68.1498 7.19035 68.2674 5.98551ZM76.1095 10.2672C73.9957 9.61529 72.8635 7.57316 73.5413 5.37525C74.2192 3.17733 76.3082 2.11715 78.422 2.76907C80.052 3.27179 81.1079 4.55332 81.1384 6.20959L79.4452 5.68741C79.3155 4.87578 78.7915 4.33414 78.0028 4.09089C76.7198 3.69519 75.5162 4.34897 75.0557 5.84229C74.5984 7.32509 75.2214 8.55374 76.5044 8.94943C77.2931 9.19268 78.0311 9.04025 78.5987 8.43217L80.2918 8.95435C79.3305 10.3163 77.7395 10.7699 76.1095 10.2672ZM89.1055 10.1973C88.7816 10.8103 88.2302 11.0293 87.4713 10.6282L86.3328 10.0266L87.3869 8.03195L88.5253 8.63353C89.2843 9.03458 89.4243 9.59401 89.1055 10.1973ZM86.6211 6.18342L83.0322 12.9751L84.3944 13.6949L85.793 11.0483L86.4351 11.3876L86.535 14.8261L88.1113 15.659L87.9415 12.0467C89.1855 12.3307 90.085 11.7356 90.5221 10.9085C91.1236 9.77007 90.8051 8.39434 89.1704 7.53054L86.6211 6.18342ZM98.0883 13.4706C99.8007 14.8359 100.145 17.1934 98.7109 18.9918C97.2702 20.7988 94.8866 20.9815 93.1829 19.6231C91.4877 18.2715 91.1178 15.8934 92.5585 14.0864C93.9924 12.288 96.3932 12.1191 98.0883 13.4706ZM97.2239 14.5548C96.1311 13.6835 94.7718 13.8525 93.7976 15.0743C92.8234 16.2962 92.9477 17.6761 94.0405 18.5475C95.1247 19.4119 96.4976 19.2258 97.4719 18.0039C98.4461 16.782 98.3081 15.4193 97.2239 14.5548ZM104.344 19.5526L98.5975 24.6504L101.3 27.6964L102.214 26.8857L100.534 24.9922L105.366 20.7051L104.344 19.5526ZM102.989 30.1499L109.367 25.8695L110.226 27.1488L104.862 30.7485L106.272 32.8503L105.258 33.531L102.989 30.1499ZM109.378 42.6556L109.855 44.1208L112.942 43.1171L113.701 45.451L114.863 45.0733L114.104 42.7394L115.977 42.1303L116.967 45.1759L118.15 44.7914L116.684 40.2806L109.378 42.6556ZM119.67 52.6778C119.965 54.848 118.584 56.7899 116.305 57.0991C114.015 57.4098 112.166 55.8949 111.873 53.7356C111.582 51.5873 112.957 49.6126 115.247 49.3019C117.527 48.9927 119.379 50.5295 119.67 52.6778ZM118.296 52.8642C118.108 51.4793 117.009 50.6622 115.461 50.8723C113.912 51.0823 113.048 52.1657 113.236 53.5507C113.423 54.9247 114.544 55.7389 116.092 55.5288C117.641 55.3187 118.483 54.2383 118.296 52.8642ZM117.403 65.45C116.711 65.4138 116.28 65.0057 116.325 64.1484L116.392 62.8626L118.645 62.9801L118.578 64.266C118.533 65.1232 118.084 65.4855 117.403 65.45ZM120 61.508L112.329 61.1078L112.249 62.6464L115.238 62.8024L115.2 63.5277L112.122 65.0642L112.03 66.8446L115.235 65.1716C115.501 66.4197 116.419 66.9855 117.353 67.0343C118.639 67.1014 119.753 66.2338 119.85 64.3875L120 61.508ZM109.262 77.9589L109.888 76.5512L116.906 79.6737L116.195 81.2724L109.983 81.1829L114.209 85.7368L113.502 87.3254L106.484 84.203L107.11 82.7953L111.675 84.8262L107.946 80.9151L108.421 79.8492L113.827 79.9898L109.262 77.9589ZM100.992 98.6803C102.791 100.114 105.148 99.7691 106.513 98.0565C107.864 96.361 107.695 93.9603 105.896 92.5268C104.089 91.0864 101.711 91.4569 100.36 93.1524C99.0017 94.8564 99.1849 97.2399 100.992 98.6803ZM104.909 93.7661C106.131 94.7401 106.3 96.0992 105.429 97.1922C104.565 98.2766 103.202 98.4149 101.98 97.441C100.758 96.467 100.571 95.0941 101.436 94.0097C102.307 92.9167 103.687 92.7921 104.909 93.7661ZM95.9149 103.567C95.2645 104.128 95.267 104.721 95.7195 105.246C96.1647 105.763 96.7366 105.837 97.3871 105.277L98.3628 104.437L96.8906 102.727L95.9149 103.567ZM95.3507 98.578L100.363 104.399L98.1784 106.28C96.7775 107.487 95.3804 107.281 94.5402 106.305C93.9297 105.597 93.7041 104.542 94.4226 103.487L90.9977 102.327L92.3486 101.163L95.5862 102.326L96.1366 101.852L94.1832 99.5834L95.3507 98.578ZM88.5706 112.777L92.4297 110.547L88.581 103.887L84.7218 106.117L85.3495 107.203L87.8746 105.744L88.8932 107.507L86.654 108.8L87.2652 109.858L89.5044 108.564L90.468 110.232L87.9429 111.691L88.5706 112.777ZM71.6398 109.628L73.7695 119.628L72.2519 119.951L70.1221 109.952L71.6398 109.628Z" fill="white"/>
</svg>
