<svg viewBox="0 0 299 214" fill="none" xmlns="http://www.w3.org/2000/svg">
<g opacity="0.5" filter="url(#filter0_b_1407_377)">
<mask id="path-1-inside-1_1407_377" fill="white">
<path fill-rule="evenodd" clip-rule="evenodd" d="M49.5277 157.161C56.1767 143.863 46.5068 128.217 31.6392 128.217H20C8.95431 128.217 0 119.262 0 108.217V20.2168C0 9.1711 8.95431 0.216797 20 0.216797H108C119.046 0.216797 128 9.1711 128 20.2168V123.495C128 126.6 127.277 129.663 125.889 132.44L90.8609 202.494C87.473 209.27 80.5478 213.55 72.9724 213.55H53.6938C38.8262 213.55 29.1562 197.904 35.8053 184.605L49.5277 157.161ZM190.668 128.217C179.622 128.217 170.668 119.262 170.668 108.217V20.2168C170.668 9.1711 179.622 0.216797 190.668 0.216797H278.668C289.714 0.216797 298.668 9.1711 298.668 20.2168V123.495C298.668 126.6 297.945 129.663 296.556 132.44L261.529 202.494C258.141 209.27 251.216 213.55 243.64 213.55H224.362C209.494 213.55 199.824 197.904 206.473 184.605L220.196 157.161C226.845 143.863 217.175 128.217 202.307 128.217H190.668Z"/>
</mask>
<path fill-rule="evenodd" clip-rule="evenodd" d="M49.5277 157.161C56.1767 143.863 46.5068 128.217 31.6392 128.217H20C8.95431 128.217 0 119.262 0 108.217V20.2168C0 9.1711 8.95431 0.216797 20 0.216797H108C119.046 0.216797 128 9.1711 128 20.2168V123.495C128 126.6 127.277 129.663 125.889 132.44L90.8609 202.494C87.473 209.27 80.5478 213.55 72.9724 213.55H53.6938C38.8262 213.55 29.1562 197.904 35.8053 184.605L49.5277 157.161ZM190.668 128.217C179.622 128.217 170.668 119.262 170.668 108.217V20.2168C170.668 9.1711 179.622 0.216797 190.668 0.216797H278.668C289.714 0.216797 298.668 9.1711 298.668 20.2168V123.495C298.668 126.6 297.945 129.663 296.556 132.44L261.529 202.494C258.141 209.27 251.216 213.55 243.64 213.55H224.362C209.494 213.55 199.824 197.904 206.473 184.605L220.196 157.161C226.845 143.863 217.175 128.217 202.307 128.217H190.668Z" fill="url(#paint0_radial_1407_377)"/>
<path d="M206.473 184.605L204.684 183.711L206.473 184.605ZM261.529 202.494L259.74 201.6L261.529 202.494ZM296.556 132.44L294.768 131.545L296.556 132.44ZM35.8053 184.605L34.0165 183.711L35.8053 184.605ZM125.889 132.44L127.677 133.334L125.889 132.44ZM20 130.217H31.6392V126.217H20V130.217ZM-2 20.2168V108.217H2V20.2168H-2ZM108 -1.7832H20V2.2168H108V-1.7832ZM130 123.495V20.2168H126V123.495H130ZM92.6497 203.389L127.677 133.334L124.1 131.545L89.072 201.6L92.6497 203.389ZM53.6938 215.55H72.9724V211.55H53.6938V215.55ZM47.7388 156.267L34.0165 183.711L37.5942 185.5L51.3165 158.056L47.7388 156.267ZM168.668 20.2168V108.217H172.668V20.2168H168.668ZM278.668 -1.7832H190.668V2.2168H278.668V-1.7832ZM300.668 123.495V20.2168H296.668V123.495H300.668ZM263.318 203.389L298.345 133.334L294.768 131.545L259.74 201.6L263.318 203.389ZM224.362 215.55H243.64V211.55H224.362V215.55ZM218.407 156.267L204.684 183.711L208.262 185.5L221.984 158.056L218.407 156.267ZM190.668 130.217H202.307V126.217H190.668V130.217ZM221.984 158.056C229.298 143.428 218.662 126.217 202.307 126.217V130.217C215.688 130.217 224.391 144.298 218.407 156.267L221.984 158.056ZM224.362 211.55C210.981 211.55 202.278 197.468 208.262 185.5L204.684 183.711C197.37 198.339 208.007 215.55 224.362 215.55V211.55ZM259.74 201.6C256.691 207.698 250.458 211.55 243.64 211.55V215.55C251.973 215.55 259.591 210.842 263.318 203.389L259.74 201.6ZM296.668 123.495C296.668 126.29 296.017 129.046 294.768 131.545L298.345 133.334C299.873 130.279 300.668 126.911 300.668 123.495H296.668ZM278.668 2.2168C288.609 2.2168 296.668 10.2757 296.668 20.2168H300.668C300.668 8.06653 290.818 -1.7832 278.668 -1.7832V2.2168ZM168.668 108.217C168.668 120.367 178.518 130.217 190.668 130.217V126.217C180.727 126.217 172.668 118.158 172.668 108.217H168.668ZM172.668 20.2168C172.668 10.2757 180.727 2.2168 190.668 2.2168V-1.7832C178.518 -1.7832 168.668 8.06653 168.668 20.2168H172.668ZM53.6938 211.55C40.3129 211.55 31.61 197.468 37.5942 185.5L34.0165 183.711C26.7025 198.339 37.3394 215.55 53.6938 215.55V211.55ZM89.072 201.6C86.023 207.698 79.7903 211.55 72.9724 211.55V215.55C81.3053 215.55 88.9231 210.842 92.6497 203.389L89.072 201.6ZM126 123.495C126 126.29 125.349 129.046 124.1 131.545L127.677 133.334C129.205 130.279 130 126.911 130 123.495H126ZM108 2.2168C117.941 2.2168 126 10.2757 126 20.2168H130C130 8.06653 120.15 -1.7832 108 -1.7832V2.2168ZM2 20.2168C2 10.2757 10.0589 2.2168 20 2.2168V-1.7832C7.84974 -1.7832 -2 8.06653 -2 20.2168H2ZM31.6392 130.217C45.0201 130.217 53.723 144.298 47.7388 156.267L51.3165 158.056C58.6305 143.428 47.9936 126.217 31.6392 126.217V130.217ZM20 126.217C10.0589 126.217 2 118.158 2 108.217H-2C-2 120.367 7.84974 130.217 20 130.217V126.217Z" fill="url(#paint1_radial_1407_377)" fill-opacity="0.3" mask="url(#path-1-inside-1_1407_377)"/>
<path d="M206.473 184.605L204.684 183.711L206.473 184.605ZM261.529 202.494L259.74 201.6L261.529 202.494ZM296.556 132.44L294.768 131.545L296.556 132.44ZM35.8053 184.605L34.0165 183.711L35.8053 184.605ZM125.889 132.44L127.677 133.334L125.889 132.44ZM20 130.217H31.6392V126.217H20V130.217ZM-2 20.2168V108.217H2V20.2168H-2ZM108 -1.7832H20V2.2168H108V-1.7832ZM130 123.495V20.2168H126V123.495H130ZM92.6497 203.389L127.677 133.334L124.1 131.545L89.072 201.6L92.6497 203.389ZM53.6938 215.55H72.9724V211.55H53.6938V215.55ZM47.7388 156.267L34.0165 183.711L37.5942 185.5L51.3165 158.056L47.7388 156.267ZM168.668 20.2168V108.217H172.668V20.2168H168.668ZM278.668 -1.7832H190.668V2.2168H278.668V-1.7832ZM300.668 123.495V20.2168H296.668V123.495H300.668ZM263.318 203.389L298.345 133.334L294.768 131.545L259.74 201.6L263.318 203.389ZM224.362 215.55H243.64V211.55H224.362V215.55ZM218.407 156.267L204.684 183.711L208.262 185.5L221.984 158.056L218.407 156.267ZM190.668 130.217H202.307V126.217H190.668V130.217ZM221.984 158.056C229.298 143.428 218.662 126.217 202.307 126.217V130.217C215.688 130.217 224.391 144.298 218.407 156.267L221.984 158.056ZM224.362 211.55C210.981 211.55 202.278 197.468 208.262 185.5L204.684 183.711C197.37 198.339 208.007 215.55 224.362 215.55V211.55ZM259.74 201.6C256.691 207.698 250.458 211.55 243.64 211.55V215.55C251.973 215.55 259.591 210.842 263.318 203.389L259.74 201.6ZM296.668 123.495C296.668 126.29 296.017 129.046 294.768 131.545L298.345 133.334C299.873 130.279 300.668 126.911 300.668 123.495H296.668ZM278.668 2.2168C288.609 2.2168 296.668 10.2757 296.668 20.2168H300.668C300.668 8.06653 290.818 -1.7832 278.668 -1.7832V2.2168ZM168.668 108.217C168.668 120.367 178.518 130.217 190.668 130.217V126.217C180.727 126.217 172.668 118.158 172.668 108.217H168.668ZM172.668 20.2168C172.668 10.2757 180.727 2.2168 190.668 2.2168V-1.7832C178.518 -1.7832 168.668 8.06653 168.668 20.2168H172.668ZM53.6938 211.55C40.3129 211.55 31.61 197.468 37.5942 185.5L34.0165 183.711C26.7025 198.339 37.3394 215.55 53.6938 215.55V211.55ZM89.072 201.6C86.023 207.698 79.7903 211.55 72.9724 211.55V215.55C81.3053 215.55 88.9231 210.842 92.6497 203.389L89.072 201.6ZM126 123.495C126 126.29 125.349 129.046 124.1 131.545L127.677 133.334C129.205 130.279 130 126.911 130 123.495H126ZM108 2.2168C117.941 2.2168 126 10.2757 126 20.2168H130C130 8.06653 120.15 -1.7832 108 -1.7832V2.2168ZM2 20.2168C2 10.2757 10.0589 2.2168 20 2.2168V-1.7832C7.84974 -1.7832 -2 8.06653 -2 20.2168H2ZM31.6392 130.217C45.0201 130.217 53.723 144.298 47.7388 156.267L51.3165 158.056C58.6305 143.428 47.9936 126.217 31.6392 126.217V130.217ZM20 126.217C10.0589 126.217 2 118.158 2 108.217H-2C-2 120.367 7.84974 130.217 20 130.217V126.217Z" fill="url(#paint2_radial_1407_377)" mask="url(#path-1-inside-1_1407_377)"/>
<path d="M206.473 184.605L204.684 183.711L206.473 184.605ZM261.529 202.494L259.74 201.6L261.529 202.494ZM296.556 132.44L294.768 131.545L296.556 132.44ZM35.8053 184.605L34.0165 183.711L35.8053 184.605ZM125.889 132.44L127.677 133.334L125.889 132.44ZM20 130.217H31.6392V126.217H20V130.217ZM-2 20.2168V108.217H2V20.2168H-2ZM108 -1.7832H20V2.2168H108V-1.7832ZM130 123.495V20.2168H126V123.495H130ZM92.6497 203.389L127.677 133.334L124.1 131.545L89.072 201.6L92.6497 203.389ZM53.6938 215.55H72.9724V211.55H53.6938V215.55ZM47.7388 156.267L34.0165 183.711L37.5942 185.5L51.3165 158.056L47.7388 156.267ZM168.668 20.2168V108.217H172.668V20.2168H168.668ZM278.668 -1.7832H190.668V2.2168H278.668V-1.7832ZM300.668 123.495V20.2168H296.668V123.495H300.668ZM263.318 203.389L298.345 133.334L294.768 131.545L259.74 201.6L263.318 203.389ZM224.362 215.55H243.64V211.55H224.362V215.55ZM218.407 156.267L204.684 183.711L208.262 185.5L221.984 158.056L218.407 156.267ZM190.668 130.217H202.307V126.217H190.668V130.217ZM221.984 158.056C229.298 143.428 218.662 126.217 202.307 126.217V130.217C215.688 130.217 224.391 144.298 218.407 156.267L221.984 158.056ZM224.362 211.55C210.981 211.55 202.278 197.468 208.262 185.5L204.684 183.711C197.37 198.339 208.007 215.55 224.362 215.55V211.55ZM259.74 201.6C256.691 207.698 250.458 211.55 243.64 211.55V215.55C251.973 215.55 259.591 210.842 263.318 203.389L259.74 201.6ZM296.668 123.495C296.668 126.29 296.017 129.046 294.768 131.545L298.345 133.334C299.873 130.279 300.668 126.911 300.668 123.495H296.668ZM278.668 2.2168C288.609 2.2168 296.668 10.2757 296.668 20.2168H300.668C300.668 8.06653 290.818 -1.7832 278.668 -1.7832V2.2168ZM168.668 108.217C168.668 120.367 178.518 130.217 190.668 130.217V126.217C180.727 126.217 172.668 118.158 172.668 108.217H168.668ZM172.668 20.2168C172.668 10.2757 180.727 2.2168 190.668 2.2168V-1.7832C178.518 -1.7832 168.668 8.06653 168.668 20.2168H172.668ZM53.6938 211.55C40.3129 211.55 31.61 197.468 37.5942 185.5L34.0165 183.711C26.7025 198.339 37.3394 215.55 53.6938 215.55V211.55ZM89.072 201.6C86.023 207.698 79.7903 211.55 72.9724 211.55V215.55C81.3053 215.55 88.9231 210.842 92.6497 203.389L89.072 201.6ZM126 123.495C126 126.29 125.349 129.046 124.1 131.545L127.677 133.334C129.205 130.279 130 126.911 130 123.495H126ZM108 2.2168C117.941 2.2168 126 10.2757 126 20.2168H130C130 8.06653 120.15 -1.7832 108 -1.7832V2.2168ZM2 20.2168C2 10.2757 10.0589 2.2168 20 2.2168V-1.7832C7.84974 -1.7832 -2 8.06653 -2 20.2168H2ZM31.6392 130.217C45.0201 130.217 53.723 144.298 47.7388 156.267L51.3165 158.056C58.6305 143.428 47.9936 126.217 31.6392 126.217V130.217ZM20 126.217C10.0589 126.217 2 118.158 2 108.217H-2C-2 120.367 7.84974 130.217 20 130.217V126.217Z" fill="url(#paint3_radial_1407_377)" mask="url(#path-1-inside-1_1407_377)"/>
</g>
<defs>
<filter id="filter0_b_1407_377" x="-100" y="-99.7832" width="498.668" height="413.334" filterUnits="userSpaceOnUse" color-interpolation-filters="sRGB">
<feFlood flood-opacity="0" result="BackgroundImageFix"/>
<feGaussianBlur in="BackgroundImage" stdDeviation="50"/>
<feComposite in2="SourceAlpha" operator="in" result="effect1_backgroundBlur_1407_377"/>
<feBlend mode="normal" in="SourceGraphic" in2="effect1_backgroundBlur_1407_377" result="shape"/>
</filter>
<radialGradient id="paint0_radial_1407_377" cx="0" cy="0" r="1" gradientUnits="userSpaceOnUse" gradientTransform="translate(24.9837 0.216798) rotate(38.4438) scale(381.334 271.275)">
<stop stop-color="#0F1218" stop-opacity="0.19"/>
<stop offset="1" stop-color="#1D1840" stop-opacity="0.26"/>
</radialGradient>
<radialGradient id="paint1_radial_1407_377" cx="0" cy="0" r="1" gradientUnits="userSpaceOnUse" gradientTransform="translate(-159.028 22.0413) rotate(26.6665) scale(315.201 158.716)">
<stop stop-color="white"/>
<stop offset="1" stop-color="white" stop-opacity="0.06"/>
</radialGradient>
<radialGradient id="paint2_radial_1407_377" cx="0" cy="0" r="1" gradientUnits="userSpaceOnUse" gradientTransform="translate(386.107 142.992) rotate(166.438) scale(243.276 123.906)">
<stop stop-color="#6236FF"/>
<stop offset="1" stop-color="#6236FF" stop-opacity="0"/>
</radialGradient>
<radialGradient id="paint3_radial_1407_377" cx="0" cy="0" r="1" gradientUnits="userSpaceOnUse" gradientTransform="translate(152.586 -48.5398) rotate(37.732) scale(143.143 99.8913)">
<stop/>
<stop offset="1" stop-color="white" stop-opacity="0"/>
</radialGradient>
</defs>
</svg>
